<svg width="80" height="21" viewBox="0 0 80 21" fill="none" xmlns="http://www.w3.org/2000/svg">
<rect x="0.5" y="1.5" width="79" height="19" rx="9.5" fill="#99EF71" stroke="#25983F"/>
<path d="M30 5.228V6.81H25.926V9.316H29.048V10.87H25.926V15H23.966V5.228H30ZM34.8338 15.126C34.0872 15.126 33.4152 14.9627 32.8178 14.636C32.2205 14.3 31.7492 13.8287 31.4038 13.222C31.0678 12.6153 30.8998 11.9153 30.8998 11.122C30.8998 10.3287 31.0725 9.62867 31.4178 9.022C31.7725 8.41533 32.2532 7.94867 32.8598 7.622C33.4665 7.286 34.1432 7.118 34.8898 7.118C35.6365 7.118 36.3132 7.286 36.9198 7.622C37.5265 7.94867 38.0025 8.41533 38.3478 9.022C38.7025 9.62867 38.8798 10.3287 38.8798 11.122C38.8798 11.9153 38.6978 12.6153 38.3338 13.222C37.9792 13.8287 37.4938 14.3 36.8778 14.636C36.2712 14.9627 35.5898 15.126 34.8338 15.126ZM34.8338 13.418C35.1885 13.418 35.5198 13.334 35.8278 13.166C36.1452 12.9887 36.3972 12.7273 36.5838 12.382C36.7705 12.0367 36.8638 11.6167 36.8638 11.122C36.8638 10.3847 36.6678 9.82 36.2758 9.428C35.8932 9.02667 35.4218 8.826 34.8618 8.826C34.3018 8.826 33.8305 9.02667 33.4478 9.428C33.0745 9.82 32.8878 10.3847 32.8878 11.122C32.8878 11.8593 33.0698 12.4287 33.4338 12.83C33.8072 13.222 34.2738 13.418 34.8338 13.418ZM39.8136 11.122C39.8136 10.3193 39.9769 9.61933 40.3036 9.022C40.6302 8.41533 41.0829 7.94867 41.6616 7.622C42.2402 7.286 42.9029 7.118 43.6496 7.118C44.6109 7.118 45.4042 7.36067 46.0296 7.846C46.6642 8.322 47.0889 8.994 47.3036 9.862H45.1896C45.0776 9.526 44.8862 9.26467 44.6156 9.078C44.3542 8.882 44.0276 8.784 43.6356 8.784C43.0756 8.784 42.6322 8.98933 42.3056 9.4C41.9789 9.80133 41.8156 10.3753 41.8156 11.122C41.8156 11.8593 41.9789 12.4333 42.3056 12.844C42.6322 13.2453 43.0756 13.446 43.6356 13.446C44.4289 13.446 44.9469 13.0913 45.1896 12.382H47.3036C47.0889 13.222 46.6642 13.8893 46.0296 14.384C45.3949 14.8787 44.6016 15.126 43.6496 15.126C42.9029 15.126 42.2402 14.9627 41.6616 14.636C41.0829 14.3 40.6302 13.8333 40.3036 13.236C39.9769 12.6293 39.8136 11.9247 39.8136 11.122ZM52.1834 15.126C51.4368 15.126 50.7648 14.9627 50.1674 14.636C49.5701 14.3 49.0988 13.8287 48.7534 13.222C48.4174 12.6153 48.2494 11.9153 48.2494 11.122C48.2494 10.3287 48.4221 9.62867 48.7674 9.022C49.1221 8.41533 49.6028 7.94867 50.2094 7.622C50.8161 7.286 51.4928 7.118 52.2394 7.118C52.9861 7.118 53.6628 7.286 54.2694 7.622C54.8761 7.94867 55.3521 8.41533 55.6974 9.022C56.0521 9.62867 56.2294 10.3287 56.2294 11.122C56.2294 11.9153 56.0474 12.6153 55.6834 13.222C55.3288 13.8287 54.8434 14.3 54.2274 14.636C53.6208 14.9627 52.9394 15.126 52.1834 15.126ZM52.1834 13.418C52.5381 13.418 52.8694 13.334 53.1774 13.166C53.4948 12.9887 53.7468 12.7273 53.9334 12.382C54.1201 12.0367 54.2134 11.6167 54.2134 11.122C54.2134 10.3847 54.0174 9.82 53.6254 9.428C53.2428 9.02667 52.7714 8.826 52.2114 8.826C51.6514 8.826 51.1801 9.02667 50.7974 9.428C50.4241 9.82 50.2374 10.3847 50.2374 11.122C50.2374 11.8593 50.4194 12.4287 50.7834 12.83C51.1568 13.222 51.6234 13.418 52.1834 13.418Z" fill="#086F2B"/>
</svg>
