<svg width="120" height="21" viewBox="0 0 120 21" fill="none" xmlns="http://www.w3.org/2000/svg">
<rect x="0.5" y="1.5" width="119" height="19" rx="9.5" fill="#73A6C2" stroke="#3CCDBC"/>
<path d="M23.092 8.252C23.092 8.77467 22.966 9.26467 22.714 9.722C22.4713 10.1793 22.084 10.548 21.552 10.828C21.0293 11.108 20.3667 11.248 19.564 11.248H17.926V15H15.966V5.228H19.564C20.32 5.228 20.964 5.35867 21.496 5.62C22.028 5.88133 22.4247 6.24067 22.686 6.698C22.9567 7.15533 23.092 7.67333 23.092 8.252ZM19.48 9.666C20.0213 9.666 20.4227 9.54467 20.684 9.302C20.9453 9.05 21.076 8.7 21.076 8.252C21.076 7.3 20.544 6.824 19.48 6.824H17.926V9.666H19.48ZM23.9796 11.094C23.9796 10.31 24.1336 9.61467 24.4416 9.008C24.7589 8.40133 25.1836 7.93467 25.7156 7.608C26.2569 7.28133 26.8589 7.118 27.5216 7.118C28.1002 7.118 28.6042 7.23467 29.0336 7.468C29.4722 7.70133 29.8222 7.99533 30.0836 8.35V7.244H32.0576V15H30.0836V13.866C29.8316 14.23 29.4816 14.5333 29.0336 14.776C28.5949 15.0093 28.0862 15.126 27.5076 15.126C26.8542 15.126 26.2569 14.958 25.7156 14.622C25.1836 14.286 24.7589 13.8147 24.4416 13.208C24.1336 12.592 23.9796 11.8873 23.9796 11.094ZM30.0836 11.122C30.0836 10.646 29.9902 10.24 29.8036 9.904C29.6169 9.55867 29.3649 9.29733 29.0476 9.12C28.7302 8.93333 28.3896 8.84 28.0256 8.84C27.6616 8.84 27.3256 8.92867 27.0176 9.106C26.7096 9.28333 26.4576 9.54467 26.2616 9.89C26.0749 10.226 25.9816 10.6273 25.9816 11.094C25.9816 11.5607 26.0749 11.9713 26.2616 12.326C26.4576 12.6713 26.7096 12.9373 27.0176 13.124C27.3349 13.3107 27.6709 13.404 28.0256 13.404C28.3896 13.404 28.7302 13.3153 29.0476 13.138C29.3649 12.9513 29.6169 12.69 29.8036 12.354C29.9902 12.0087 30.0836 11.598 30.0836 11.122ZM41.2939 7.244V15H39.3199V14.02C39.0679 14.356 38.7365 14.622 38.3259 14.818C37.9245 15.0047 37.4859 15.098 37.0099 15.098C36.4032 15.098 35.8665 14.972 35.3999 14.72C34.9332 14.4587 34.5645 14.0807 34.2939 13.586C34.0325 13.082 33.9019 12.4847 33.9019 11.794V7.244H35.8619V11.514C35.8619 12.13 36.0159 12.606 36.3239 12.942C36.6319 13.2687 37.0519 13.432 37.5839 13.432C38.1252 13.432 38.5499 13.2687 38.8579 12.942C39.1659 12.606 39.3199 12.13 39.3199 11.514V7.244H41.2939ZM46.1957 15.126C45.5611 15.126 44.9917 15.014 44.4877 14.79C43.9837 14.5567 43.5824 14.244 43.2837 13.852C42.9944 13.46 42.8357 13.026 42.8077 12.55H44.7817C44.8191 12.8487 44.9637 13.096 45.2157 13.292C45.4771 13.488 45.7991 13.586 46.1817 13.586C46.5551 13.586 46.8444 13.5113 47.0497 13.362C47.2644 13.2127 47.3717 13.0213 47.3717 12.788C47.3717 12.536 47.2411 12.3493 46.9797 12.228C46.7277 12.0973 46.3217 11.9573 45.7617 11.808C45.1831 11.668 44.7071 11.5233 44.3337 11.374C43.9697 11.2247 43.6524 10.996 43.3817 10.688C43.1204 10.38 42.9897 9.96467 42.9897 9.442C42.9897 9.01267 43.1111 8.62067 43.3537 8.266C43.6057 7.91133 43.9604 7.63133 44.4177 7.426C44.8844 7.22067 45.4304 7.118 46.0557 7.118C46.9797 7.118 47.7171 7.35133 48.2677 7.818C48.8184 8.27533 49.1217 8.896 49.1777 9.68H47.3017C47.2737 9.372 47.1431 9.12933 46.9097 8.952C46.6857 8.76533 46.3824 8.672 45.9997 8.672C45.6451 8.672 45.3697 8.73733 45.1737 8.868C44.9871 8.99867 44.8937 9.18067 44.8937 9.414C44.8937 9.67533 45.0244 9.876 45.2857 10.016C45.5471 10.1467 45.9531 10.282 46.5037 10.422C47.0637 10.562 47.5257 10.7067 47.8897 10.856C48.2537 11.0053 48.5664 11.2387 48.8277 11.556C49.0984 11.864 49.2384 12.2747 49.2477 12.788C49.2477 13.236 49.1217 13.6373 48.8697 13.992C48.6271 14.3467 48.2724 14.6267 47.8057 14.832C47.3484 15.028 46.8117 15.126 46.1957 15.126ZM50.3526 11.094C50.3526 10.31 50.5066 9.61467 50.8146 9.008C51.132 8.40133 51.5566 7.93467 52.0886 7.608C52.63 7.28133 53.232 7.118 53.8946 7.118C54.4733 7.118 54.9773 7.23467 55.4066 7.468C55.8453 7.70133 56.1953 7.99533 56.4566 8.35V7.244H58.4306V15H56.4566V13.866C56.2046 14.23 55.8546 14.5333 55.4066 14.776C54.968 15.0093 54.4593 15.126 53.8806 15.126C53.2273 15.126 52.63 14.958 52.0886 14.622C51.5566 14.286 51.132 13.8147 50.8146 13.208C50.5066 12.592 50.3526 11.8873 50.3526 11.094ZM56.4566 11.122C56.4566 10.646 56.3633 10.24 56.1766 9.904C55.99 9.55867 55.738 9.29733 55.4206 9.12C55.1033 8.93333 54.7626 8.84 54.3986 8.84C54.0346 8.84 53.6986 8.92867 53.3906 9.106C53.0826 9.28333 52.8306 9.54467 52.6346 9.89C52.448 10.226 52.3546 10.6273 52.3546 11.094C52.3546 11.5607 52.448 11.9713 52.6346 12.326C52.8306 12.6713 53.0826 12.9373 53.3906 13.124C53.708 13.3107 54.044 13.404 54.3986 13.404C54.7626 13.404 55.1033 13.3153 55.4206 13.138C55.738 12.9513 55.99 12.69 56.1766 12.354C56.3633 12.0087 56.4566 11.598 56.4566 11.122ZM65.6408 4.64V15H63.6808V4.64H65.6408ZM71.0213 15.126C70.2747 15.126 69.6027 14.9627 69.0053 14.636C68.408 14.3 67.9367 13.8287 67.5913 13.222C67.2553 12.6153 67.0873 11.9153 67.0873 11.122C67.0873 10.3287 67.26 9.62867 67.6053 9.022C67.96 8.41533 68.4407 7.94867 69.0473 7.622C69.654 7.286 70.3307 7.118 71.0773 7.118C71.824 7.118 72.5007 7.286 73.1073 7.622C73.714 7.94867 74.19 8.41533 74.5353 9.022C74.89 9.62867 75.0673 10.3287 75.0673 11.122C75.0673 11.9153 74.8853 12.6153 74.5213 13.222C74.1667 13.8287 73.6813 14.3 73.0653 14.636C72.4587 14.9627 71.7773 15.126 71.0213 15.126ZM71.0213 13.418C71.376 13.418 71.7073 13.334 72.0153 13.166C72.3327 12.9887 72.5847 12.7273 72.7713 12.382C72.958 12.0367 73.0513 11.6167 73.0513 11.122C73.0513 10.3847 72.8553 9.82 72.4633 9.428C72.0807 9.02667 71.6093 8.826 71.0493 8.826C70.4893 8.826 70.018 9.02667 69.6353 9.428C69.262 9.82 69.0753 10.3847 69.0753 11.122C69.0753 11.8593 69.2573 12.4287 69.6213 12.83C69.9947 13.222 70.4613 13.418 71.0213 13.418ZM80.8031 7.132C81.7271 7.132 82.4737 7.426 83.0431 8.014C83.6124 8.59267 83.8971 9.40467 83.8971 10.45V15H81.9371V10.716C81.9371 10.1 81.7831 9.62867 81.4751 9.302C81.1671 8.966 80.7471 8.798 80.2151 8.798C79.6737 8.798 79.2444 8.966 78.9271 9.302C78.6191 9.62867 78.4651 10.1 78.4651 10.716V15H76.5051V7.244H78.4651V8.21C78.7264 7.874 79.0577 7.61267 79.4591 7.426C79.8697 7.23 80.3177 7.132 80.8031 7.132ZM88.7989 7.118C89.3776 7.118 89.8863 7.23467 90.3249 7.468C90.7636 7.692 91.1089 7.986 91.3609 8.35V7.244H93.3349V15.056C93.3349 15.7747 93.1903 16.414 92.9009 16.974C92.6116 17.5433 92.1776 17.9913 91.5989 18.318C91.0203 18.654 90.3203 18.822 89.4989 18.822C88.3976 18.822 87.4923 18.5653 86.7829 18.052C86.0829 17.5387 85.6863 16.8387 85.5929 15.952H87.5389C87.6416 16.3067 87.8609 16.5867 88.1969 16.792C88.5423 17.0067 88.9576 17.114 89.4429 17.114C90.0123 17.114 90.4743 16.9413 90.8289 16.596C91.1836 16.26 91.3609 15.7467 91.3609 15.056V13.852C91.1089 14.216 90.7589 14.5193 90.3109 14.762C89.8723 15.0047 89.3683 15.126 88.7989 15.126C88.1456 15.126 87.5483 14.958 87.0069 14.622C86.4656 14.286 86.0363 13.8147 85.7189 13.208C85.4109 12.592 85.2569 11.8873 85.2569 11.094C85.2569 10.31 85.4109 9.61467 85.7189 9.008C86.0363 8.40133 86.4609 7.93467 86.9929 7.608C87.5343 7.28133 88.1363 7.118 88.7989 7.118ZM91.3609 11.122C91.3609 10.646 91.2676 10.24 91.0809 9.904C90.8943 9.55867 90.6423 9.29733 90.3249 9.12C90.0076 8.93333 89.6669 8.84 89.3029 8.84C88.9389 8.84 88.6029 8.92867 88.2949 9.106C87.9869 9.28333 87.7349 9.54467 87.5389 9.89C87.3523 10.226 87.2589 10.6273 87.2589 11.094C87.2589 11.5607 87.3523 11.9713 87.5389 12.326C87.7349 12.6713 87.9869 12.9373 88.2949 13.124C88.6123 13.3107 88.9483 13.404 89.3029 13.404C89.6669 13.404 90.0076 13.3153 90.3249 13.138C90.6423 12.9513 90.8943 12.69 91.0809 12.354C91.2676 12.0087 91.3609 11.598 91.3609 11.122ZM94.7452 11.094C94.7452 10.31 94.8992 9.61467 95.2072 9.008C95.5245 8.40133 95.9492 7.93467 96.4812 7.608C97.0225 7.28133 97.6245 7.118 98.2872 7.118C98.8659 7.118 99.3699 7.23467 99.7992 7.468C100.238 7.70133 100.588 7.99533 100.849 8.35V7.244H102.823V15H100.849V13.866C100.597 14.23 100.247 14.5333 99.7992 14.776C99.3605 15.0093 98.8519 15.126 98.2732 15.126C97.6199 15.126 97.0225 14.958 96.4812 14.622C95.9492 14.286 95.5245 13.8147 95.2072 13.208C94.8992 12.592 94.7452 11.8873 94.7452 11.094ZM100.849 11.122C100.849 10.646 100.756 10.24 100.569 9.904C100.383 9.55867 100.131 9.29733 99.8132 9.12C99.4959 8.93333 99.1552 8.84 98.7912 8.84C98.4272 8.84 98.0912 8.92867 97.7832 9.106C97.4752 9.28333 97.2232 9.54467 97.0272 9.89C96.8405 10.226 96.7472 10.6273 96.7472 11.094C96.7472 11.5607 96.8405 11.9713 97.0272 12.326C97.2232 12.6713 97.4752 12.9373 97.7832 13.124C98.1005 13.3107 98.4365 13.404 98.7912 13.404C99.1552 13.404 99.4959 13.3153 99.8132 13.138C100.131 12.9513 100.383 12.69 100.569 12.354C100.756 12.0087 100.849 11.598 100.849 11.122Z" fill="#0A278E"/>
</svg>
