<svg width="120" height="21" viewBox="0 0 120 21" fill="none" xmlns="http://www.w3.org/2000/svg">
<rect x="0.5" y="1.5" width="119" height="19" rx="9.5" fill="#73A6C2" stroke="#3CCDBC"/>
<path d="M23.092 8.252C23.092 8.77467 22.966 9.26467 22.714 9.722C22.4713 10.1793 22.084 10.548 21.552 10.828C21.0293 11.108 20.3667 11.248 19.564 11.248H17.926V15H15.966V5.228H19.564C20.32 5.228 20.964 5.35867 21.496 5.62C22.028 5.88133 22.4247 6.24067 22.686 6.698C22.9567 7.15533 23.092 7.67333 23.092 8.252ZM19.48 9.666C20.0213 9.666 20.4227 9.54467 20.684 9.302C20.9453 9.05 21.076 8.7 21.076 8.252C21.076 7.3 20.544 6.824 19.48 6.824H17.926V9.666H19.48ZM23.9796 11.094C23.9796 10.31 24.1336 9.61467 24.4416 9.008C24.7589 8.40133 25.1836 7.93467 25.7156 7.608C26.2569 7.28133 26.8589 7.118 27.5216 7.118C28.1002 7.118 28.6042 7.23467 29.0336 7.468C29.4722 7.70133 29.8222 7.99533 30.0836 8.35V7.244H32.0576V15H30.0836V13.866C29.8316 14.23 29.4816 14.5333 29.0336 14.776C28.5949 15.0093 28.0862 15.126 27.5076 15.126C26.8542 15.126 26.2569 14.958 25.7156 14.622C25.1836 14.286 24.7589 13.8147 24.4416 13.208C24.1336 12.592 23.9796 11.8873 23.9796 11.094ZM30.0836 11.122C30.0836 10.646 29.9902 10.24 29.8036 9.904C29.6169 9.55867 29.3649 9.29733 29.0476 9.12C28.7302 8.93333 28.3896 8.84 28.0256 8.84C27.6616 8.84 27.3256 8.92867 27.0176 9.106C26.7096 9.28333 26.4576 9.54467 26.2616 9.89C26.0749 10.226 25.9816 10.6273 25.9816 11.094C25.9816 11.5607 26.0749 11.9713 26.2616 12.326C26.4576 12.6713 26.7096 12.9373 27.0176 13.124C27.3349 13.3107 27.6709 13.404 28.0256 13.404C28.3896 13.404 28.7302 13.3153 29.0476 13.138C29.3649 12.9513 29.6169 12.69 29.8036 12.354C29.9902 12.0087 30.0836 11.598 30.0836 11.122ZM41.2939 7.244V15H39.3199V14.02C39.0679 14.356 38.7365 14.622 38.3259 14.818C37.9245 15.0047 37.4859 15.098 37.0099 15.098C36.4032 15.098 35.8665 14.972 35.3999 14.72C34.9332 14.4587 34.5645 14.0807 34.2939 13.586C34.0325 13.082 33.9019 12.4847 33.9019 11.794V7.244H35.8619V11.514C35.8619 12.13 36.0159 12.606 36.3239 12.942C36.6319 13.2687 37.0519 13.432 37.5839 13.432C38.1252 13.432 38.5499 13.2687 38.8579 12.942C39.1659 12.606 39.3199 12.13 39.3199 11.514V7.244H41.2939ZM46.1957 15.126C45.5611 15.126 44.9917 15.014 44.4877 14.79C43.9837 14.5567 43.5824 14.244 43.2837 13.852C42.9944 13.46 42.8357 13.026 42.8077 12.55H44.7817C44.8191 12.8487 44.9637 13.096 45.2157 13.292C45.4771 13.488 45.7991 13.586 46.1817 13.586C46.5551 13.586 46.8444 13.5113 47.0497 13.362C47.2644 13.2127 47.3717 13.0213 47.3717 12.788C47.3717 12.536 47.2411 12.3493 46.9797 12.228C46.7277 12.0973 46.3217 11.9573 45.7617 11.808C45.1831 11.668 44.7071 11.5233 44.3337 11.374C43.9697 11.2247 43.6524 10.996 43.3817 10.688C43.1204 10.38 42.9897 9.96467 42.9897 9.442C42.9897 9.01267 43.1111 8.62067 43.3537 8.266C43.6057 7.91133 43.9604 7.63133 44.4177 7.426C44.8844 7.22067 45.4304 7.118 46.0557 7.118C46.9797 7.118 47.7171 7.35133 48.2677 7.818C48.8184 8.27533 49.1217 8.896 49.1777 9.68H47.3017C47.2737 9.372 47.1431 9.12933 46.9097 8.952C46.6857 8.76533 46.3824 8.672 45.9997 8.672C45.6451 8.672 45.3697 8.73733 45.1737 8.868C44.9871 8.99867 44.8937 9.18067 44.8937 9.414C44.8937 9.67533 45.0244 9.876 45.2857 10.016C45.5471 10.1467 45.9531 10.282 46.5037 10.422C47.0637 10.562 47.5257 10.7067 47.8897 10.856C48.2537 11.0053 48.5664 11.2387 48.8277 11.556C49.0984 11.864 49.2384 12.2747 49.2477 12.788C49.2477 13.236 49.1217 13.6373 48.8697 13.992C48.6271 14.3467 48.2724 14.6267 47.8057 14.832C47.3484 15.028 46.8117 15.126 46.1957 15.126ZM50.3526 11.094C50.3526 10.31 50.5066 9.61467 50.8146 9.008C51.132 8.40133 51.5566 7.93467 52.0886 7.608C52.63 7.28133 53.232 7.118 53.8946 7.118C54.4733 7.118 54.9773 7.23467 55.4066 7.468C55.8453 7.70133 56.1953 7.99533 56.4566 8.35V7.244H58.4306V15H56.4566V13.866C56.2046 14.23 55.8546 14.5333 55.4066 14.776C54.968 15.0093 54.4593 15.126 53.8806 15.126C53.2273 15.126 52.63 14.958 52.0886 14.622C51.5566 14.286 51.132 13.8147 50.8146 13.208C50.5066 12.592 50.3526 11.8873 50.3526 11.094ZM56.4566 11.122C56.4566 10.646 56.3633 10.24 56.1766 9.904C55.99 9.55867 55.738 9.29733 55.4206 9.12C55.1033 8.93333 54.7626 8.84 54.3986 8.84C54.0346 8.84 53.6986 8.92867 53.3906 9.106C53.0826 9.28333 52.8306 9.54467 52.6346 9.89C52.448 10.226 52.3546 10.6273 52.3546 11.094C52.3546 11.5607 52.448 11.9713 52.6346 12.326C52.8306 12.6713 53.0826 12.9373 53.3906 13.124C53.708 13.3107 54.044 13.404 54.3986 13.404C54.7626 13.404 55.1033 13.3153 55.4206 13.138C55.738 12.9513 55.99 12.69 56.1766 12.354C56.3633 12.0087 56.4566 11.598 56.4566 11.122ZM63.1768 11.122C63.1768 10.3193 63.3402 9.61933 63.6668 9.022C63.9935 8.41533 64.4462 7.94867 65.0248 7.622C65.6035 7.286 66.2662 7.118 67.0128 7.118C67.9742 7.118 68.7675 7.36067 69.3928 7.846C70.0275 8.322 70.4522 8.994 70.6668 9.862H68.5528C68.4408 9.526 68.2495 9.26467 67.9788 9.078C67.7175 8.882 67.3908 8.784 66.9988 8.784C66.4388 8.784 65.9955 8.98933 65.6688 9.4C65.3422 9.80133 65.1788 10.3753 65.1788 11.122C65.1788 11.8593 65.3422 12.4333 65.6688 12.844C65.9955 13.2453 66.4388 13.446 66.9988 13.446C67.7922 13.446 68.3102 13.0913 68.5528 12.382H70.6668C70.4522 13.222 70.0275 13.8893 69.3928 14.384C68.7582 14.8787 67.9648 15.126 67.0128 15.126C66.2662 15.126 65.6035 14.9627 65.0248 14.636C64.4462 14.3 63.9935 13.8333 63.6668 13.236C63.3402 12.6293 63.1768 11.9247 63.1768 11.122ZM79.4247 7.244V15H77.4507V14.02C77.1987 14.356 76.8674 14.622 76.4567 14.818C76.0554 15.0047 75.6167 15.098 75.1407 15.098C74.5341 15.098 73.9974 14.972 73.5307 14.72C73.0641 14.4587 72.6954 14.0807 72.4247 13.586C72.1634 13.082 72.0327 12.4847 72.0327 11.794V7.244H73.9927V11.514C73.9927 12.13 74.1467 12.606 74.4547 12.942C74.7627 13.2687 75.1827 13.432 75.7147 13.432C76.2561 13.432 76.6807 13.2687 76.9887 12.942C77.2967 12.606 77.4507 12.13 77.4507 11.514V7.244H79.4247ZM83.3186 8.448C83.5706 8.03733 83.8972 7.71533 84.2986 7.482C84.7092 7.24867 85.1759 7.132 85.6986 7.132V9.19H85.1806C84.5646 9.19 84.0979 9.33467 83.7806 9.624C83.4726 9.91333 83.3186 10.4173 83.3186 11.136V15H81.3586V7.244H83.3186V8.448ZM89.3007 8.854V12.606C89.3007 12.8673 89.3614 13.0587 89.4827 13.18C89.6134 13.292 89.8281 13.348 90.1267 13.348H91.0367V15H89.8047C88.1527 15 87.3267 14.1973 87.3267 12.592V8.854H86.4027V7.244H87.3267V5.326H89.3007V7.244H91.0367V8.854H89.3007ZM91.9425 11.094C91.9425 10.31 92.0965 9.61467 92.4045 9.008C92.7218 8.40133 93.1465 7.93467 93.6785 7.608C94.2198 7.28133 94.8218 7.118 95.4845 7.118C96.0631 7.118 96.5671 7.23467 96.9965 7.468C97.4351 7.70133 97.7851 7.99533 98.0465 8.35V7.244H100.02V15H98.0465V13.866C97.7945 14.23 97.4445 14.5333 96.9965 14.776C96.5578 15.0093 96.0491 15.126 95.4705 15.126C94.8171 15.126 94.2198 14.958 93.6785 14.622C93.1465 14.286 92.7218 13.8147 92.4045 13.208C92.0965 12.592 91.9425 11.8873 91.9425 11.094ZM98.0465 11.122C98.0465 10.646 97.9531 10.24 97.7665 9.904C97.5798 9.55867 97.3278 9.29733 97.0105 9.12C96.6931 8.93333 96.3525 8.84 95.9885 8.84C95.6245 8.84 95.2885 8.92867 94.9805 9.106C94.6725 9.28333 94.4205 9.54467 94.2245 9.89C94.0378 10.226 93.9445 10.6273 93.9445 11.094C93.9445 11.5607 94.0378 11.9713 94.2245 12.326C94.4205 12.6713 94.6725 12.9373 94.9805 13.124C95.2978 13.3107 95.6338 13.404 95.9885 13.404C96.3525 13.404 96.6931 13.3153 97.0105 13.138C97.3278 12.9513 97.5798 12.69 97.7665 12.354C97.9531 12.0087 98.0465 11.598 98.0465 11.122Z" fill="#0A278E"/>
</svg>
